<?xml version="1.0" encoding="utf-8"?>
<!-- Generator: Adobe Illustrator 17.1.0, SVG Export Plug-In . SVG Version: 6.00 Build 0)  -->
<!DOCTYPE svg PUBLIC "-//W3C//DTD SVG 1.1//EN" "http://www.w3.org/Graphics/SVG/1.1/DTD/svg11.dtd">
<svg version="1.1" xmlns="http://www.w3.org/2000/svg" xmlns:xlink="http://www.w3.org/1999/xlink" x="0px" y="0px"
	 viewBox="0 0 316.3 253" enable-background="new 0 0 316.3 253" xml:space="preserve">
<g id="Layer_1">
</g>
<g id="vector">
	<path fill="#FFFFFF" d="M190.1,136.2v-19.5h126.1C311.3,51.5,256.7,0,190.1,0C120.3,0,63.6,56.6,63.6,126.5
		c0,69.9,56.6,126.5,126.5,126.5c66.6,0,121.1-51.5,126.1-116.8H190.1z"/>
	<path d="M126.5,136.2v-19.5h126.1C247.6,51.5,193.1,0,126.5,0C56.6,0,0,56.6,0,126.5C0,196.4,56.6,253,126.5,253
		c66.6,0,121.1-51.5,126.1-116.8H126.5z"/>
</g>
</svg>
