<?xml version="1.0" encoding="utf-8"?>
<!-- Generator: Adobe Illustrator 17.1.0, SVG Export Plug-In . SVG Version: 6.00 Build 0)  -->
<!DOCTYPE svg PUBLIC "-//W3C//DTD SVG 1.1//EN" "http://www.w3.org/Graphics/SVG/1.1/DTD/svg11.dtd">
<svg version="1.1" xmlns="http://www.w3.org/2000/svg" xmlns:xlink="http://www.w3.org/1999/xlink" x="0px" y="0px"
	 viewBox="0 0 519 253.2" enable-background="new 0 0 519 253.2" xml:space="preserve">
<g id="Layer_1">
</g>
<g id="vector">
	<path d="M126.5,136.4v-19.5h126.1c-5-65.3-59.5-116.8-126.1-116.8C56.6,0.2,0,56.8,0,126.7c0,69.9,56.6,126.5,126.5,126.5
		c66.6,0,121.1-51.5,126.1-116.8H126.5z"/>
	<path fill="#FFFFFF" d="M397.4,135l-9.7-16.9l109.2-63.1C459.9,1,386.9-16.3,329.3,17C268.7,51.9,248,129.3,283,189.8
		c34.9,60.5,112.3,81.2,172.8,46.3c57.7-33.3,79.2-105.1,50.8-164.2L397.4,135z"/>
</g>
</svg>
