<?xml version="1.0" encoding="utf-8"?>
<!-- Generator: Adobe Illustrator 17.1.0, SVG Export Plug-In . SVG Version: 6.00 Build 0)  -->
<!DOCTYPE svg PUBLIC "-//W3C//DTD SVG 1.1//EN" "http://www.w3.org/Graphics/SVG/1.1/DTD/svg11.dtd">
<svg version="1.1" xmlns="http://www.w3.org/2000/svg" xmlns:xlink="http://www.w3.org/1999/xlink" x="0px" y="0px"
	 viewBox="0 0 131.2 63.4" enable-background="new 0 0 131.2 63.4" xml:space="preserve">
<g id="Layer_1">
</g>
<g id="vector">
	<path d="M31.7,34.1v-4.9h31.6C62,12.9,48.4,0,31.7,0C14.2,0,0,14.2,0,31.7c0,17.5,14.2,31.7,31.7,31.7c16.7,0,30.3-12.9,31.6-29.3
		H31.7z"/>
	<path fill="#FFFFFF" d="M102,31.6h-4.9V0.1C80.7,1.3,67.9,15,67.9,31.6c0,17.5,14.2,31.7,31.7,31.7c17.5,0,31.7-14.2,31.7-31.7
		c0-16.7-12.9-30.3-29.3-31.6V31.6z"/>
</g>
</svg>
