<?xml version="1.0" encoding="utf-8"?>
<!-- Generator: Adobe Illustrator 17.1.0, SVG Export Plug-In . SVG Version: 6.00 Build 0)  -->
<!DOCTYPE svg PUBLIC "-//W3C//DTD SVG 1.1//EN" "http://www.w3.org/Graphics/SVG/1.1/DTD/svg11.dtd">
<svg version="1.1" xmlns="http://www.w3.org/2000/svg" xmlns:xlink="http://www.w3.org/1999/xlink" x="0px" y="0px"
	 viewBox="0 0 129.8 64.4" enable-background="new 0 0 129.8 64.4" xml:space="preserve">
<g id="Layer_1">
</g>
<g id="vector">
	<path fill="#C251A0" d="M98.2,34.1v-4.9h31.6C128.5,12.9,114.9,0,98.2,0C80.7,0,66.5,14.2,66.5,31.7c0,17.5,14.2,31.7,31.7,31.7
		c16.7,0,30.3-12.9,31.6-29.3H98.2z"/>
	<path fill="#FF7546" d="M31.6,30.3v4.9H0c1.2,16.4,14.9,29.3,31.6,29.3c17.5,0,31.7-14.2,31.7-31.7C63.3,15.2,49.1,1,31.6,1
		C14.9,1,1.2,13.9,0,30.3H31.6z"/>
</g>
</svg>
